<svg width="201" height="57" viewBox="0 0 201 57" fill="none" xmlns="http://www.w3.org/2000/svg">
<path d="M106.812 9.88022H100.391V41.9869H106.812V9.88022Z" fill="white"/>
<path d="M142.057 9.88022H135.636V41.9869H142.057V9.88022Z" fill="white"/>
<path d="M153.212 19.522H146.791V41.9873H153.212V19.522Z" fill="white"/>
<path d="M153.212 13.0615H146.791V16.2909H153.212V13.0615Z" fill="white"/>
<path d="M89.1897 19.5209H82.7688C79.2068 19.5209 76.3479 22.3759 76.3479 25.9329V35.5743C76.3479 39.1313 79.2068 41.9863 82.7688 41.9863H89.1897C92.7516 41.9863 95.6106 39.1313 95.6106 35.5743V25.9329C95.6106 22.3759 92.7516 19.5209 89.1897 19.5209ZM89.1897 35.5743C89.1897 37.3528 87.7368 38.8037 85.9558 38.8037C84.1748 38.8037 82.7219 37.3528 82.7219 35.5743V25.9329C82.7219 24.1544 84.1748 22.7035 85.9558 22.7035C87.7368 22.7035 89.1897 24.1544 89.1897 25.9329V35.5743Z" fill="white"/>
<path d="M124.388 19.5209H117.967C114.405 19.5209 111.546 22.3759 111.546 25.9329V35.5743C111.546 39.1313 114.405 41.9863 117.967 41.9863H124.388C127.95 41.9863 130.809 39.1313 130.809 35.5743V25.9329C130.809 22.3759 127.95 19.5209 124.388 19.5209ZM124.388 35.5743C124.388 37.3528 122.935 38.8037 121.154 38.8037C119.373 38.8037 117.92 37.3528 117.92 35.5743V25.9329C117.92 24.1544 119.373 22.7035 121.154 22.7035C122.935 22.7035 124.388 24.1544 124.388 25.9329V35.5743Z" fill="white"/>
<path d="M200.501 32.3449V25.9329C200.501 22.3759 197.642 19.5209 194.08 19.5209H187.659C184.097 19.5209 181.238 22.3759 181.238 25.9329V35.5743C181.238 39.1313 184.097 41.9863 187.659 41.9863H194.08C197.642 41.9863 200.501 39.1313 200.501 35.5743H197.267C197.267 37.3528 195.814 38.8037 194.033 38.8037H190.799C189.019 38.8037 187.566 37.3528 187.566 35.5743V32.3449H200.501ZM187.659 25.9329C187.659 24.1544 189.112 22.7035 190.893 22.7035C192.674 22.7035 194.127 24.1544 194.127 25.9329V29.1623H187.706V25.9329H187.659Z" fill="white"/>
<path d="M170.834 19.5209V35.5743C170.834 37.3528 169.381 38.8037 167.6 38.8037H164.366V19.5209H157.945V41.9863H166.006C172.193 41.9863 177.208 36.9784 177.208 30.8004V19.5209H170.787H170.834Z" fill="white"/>
<path d="M65.1466 19.5209H61.9127C60.1317 19.5209 58.6788 20.9718 58.6788 22.7503V9.92638H52.2579V41.9863H58.6788V25.9329C58.6788 24.1544 60.1317 22.7035 61.9127 22.7035C63.6937 22.7035 65.1466 24.1544 65.1466 25.9329V41.9863H71.5675V25.9329C71.5675 22.3759 68.7086 19.5209 65.1466 19.5209Z" fill="white"/>
<path d="M84.7376 48.6314C83.8939 48.6314 83.0972 49.3334 82.9097 50.1759L82.2535 53.8265H80.8006L81.9723 47.1805H83.4252L83.3315 47.6017C83.8471 47.3209 84.3626 47.1805 84.925 47.1805H85.6749L85.4406 48.6314H84.6907H84.7376Z" fill="white"/>
<path d="M95.3296 50.8311C95.0484 52.4692 93.4549 53.8265 91.7676 53.8265C90.0804 53.8265 89.0024 52.4692 89.2836 50.8311L89.3773 50.1759C89.6586 48.5378 91.2521 47.1805 92.8924 47.1805C94.5328 47.1805 95.6577 48.5378 95.3765 50.1759L95.2827 50.8311H95.3296ZM93.9704 50.1759C94.111 49.3334 93.5486 48.6314 92.705 48.6314C91.8614 48.6314 91.0646 49.3334 90.8771 50.1759L90.7834 50.8311C90.6428 51.6736 91.2052 52.3756 92.0488 52.3756C92.8924 52.3756 93.7361 51.6736 93.8767 50.8311L93.9704 50.1759Z" fill="white"/>
<path d="M103.485 53.8265L103.578 53.4053C103.063 53.6861 102.5 53.8265 101.938 53.8265C100.298 53.8265 99.1727 52.4692 99.4539 50.8311L99.5477 50.1759C99.8289 48.5378 101.422 47.1805 103.063 47.1805C103.625 47.1805 104.141 47.3209 104.516 47.6017L105.031 44.5595H106.484L104.844 53.7797H103.391L103.485 53.8265ZM104.141 50.1759C104.281 49.3334 103.719 48.6314 102.875 48.6314C102.032 48.6314 101.235 49.3334 101.047 50.1759L100.954 50.8311C100.813 51.6736 101.376 52.3756 102.219 52.3756C103.063 52.3756 103.906 51.6736 104.047 50.8311L104.141 50.1759Z" fill="white"/>
<path d="M125.653 49.5217C125.466 49.0069 125.044 48.6325 124.388 48.6325C123.544 48.6325 122.747 49.3345 122.56 50.177L122.466 50.8322C122.326 51.6747 122.888 52.3767 123.732 52.3767C124.341 52.3767 124.95 52.0023 125.278 51.4874L126.497 52.0959C125.841 53.1255 124.669 53.7808 123.45 53.7808C121.81 53.7808 120.685 52.4235 120.966 50.7854L121.06 50.1302C121.341 48.4921 122.935 47.1348 124.575 47.1348C125.794 47.1348 126.684 47.8368 127.012 48.8197L125.606 49.4749L125.653 49.5217Z" fill="white"/>
<path d="M133.761 53.8265C132.637 53.8265 131.887 52.9372 132.074 51.814L132.637 48.6314H131.09L131.324 47.1805H132.871L133.34 44.5595H134.792L134.324 47.1805H135.824L135.589 48.6314H134.089L133.527 51.814C133.48 52.1416 133.668 52.3756 133.996 52.3756H134.933L134.652 53.8265H133.715H133.761Z" fill="white"/>
<path d="M152.696 50.8311C152.415 52.4692 150.821 53.8265 149.134 53.8265C147.447 53.8265 146.369 52.4692 146.65 50.8311L146.744 50.1759C147.025 48.5378 148.618 47.1805 150.259 47.1805C151.899 47.1805 153.024 48.5378 152.743 50.1759L152.649 50.8311H152.696ZM151.337 50.1759C151.477 49.3334 150.915 48.6314 150.071 48.6314C149.228 48.6314 148.431 49.3334 148.243 50.1759L148.15 50.8311C148.009 51.6736 148.572 52.3756 149.415 52.3756C150.259 52.3756 151.102 51.6736 151.243 50.8311L151.337 50.1759Z" fill="white"/>
<path d="M140.042 53.8265L141.213 47.1805H142.666L141.494 53.8265H140.042Z" fill="white"/>
<path d="M141.401 46.0108H142.853L143.135 44.5599H141.682L141.401 46.0108Z" fill="white"/>
<path d="M76.5356 50.8312C76.2543 52.4693 74.6608 53.8266 72.9736 53.8266C72.4112 53.8266 71.8956 53.6862 71.5207 53.4054L71.0051 56.4476H69.5522L71.1926 47.2274H72.6455L72.5518 47.6487C73.0673 47.3678 73.5829 47.2274 74.1453 47.2274C75.7857 47.2274 76.9105 48.5847 76.6293 50.2228L76.5356 50.878V50.8312ZM75.1764 50.176C75.317 49.3336 74.7546 48.6315 73.9109 48.6315C73.0673 48.6315 72.2706 49.3336 72.0831 50.176L71.9893 50.8312C71.8487 51.6737 72.4112 52.3757 73.2548 52.3757C74.0984 52.3757 74.942 51.6737 75.0826 50.8312L75.1764 50.176Z" fill="white"/>
<path d="M71.4738 53.8279H70.0209L69.5522 56.402H71.0051L71.4738 53.8279Z" fill="white"/>
<path d="M114.452 53.8265L114.546 53.4053C114.03 53.6861 113.468 53.8265 112.905 53.8265C111.265 53.8265 110.14 52.4692 110.421 50.8311L111.077 47.1805H112.53L111.874 50.8311C111.733 51.6736 112.296 52.3756 113.14 52.3756C113.983 52.3756 114.827 51.6736 114.967 50.8311L115.624 47.1805H117.076L115.905 53.8265H114.452Z" fill="white"/>
<path d="M161.085 53.8265L161.742 50.1759C161.882 49.3334 161.32 48.6314 160.476 48.6314C159.632 48.6314 158.836 49.3334 158.648 50.1759L157.992 53.8265H156.539L157.711 47.1805H159.164L159.07 47.6017C159.586 47.3209 160.101 47.1805 160.664 47.1805C162.304 47.1805 163.429 48.5378 163.148 50.1759L162.491 53.8265H161.038H161.085Z" fill="white"/>
<path d="M41.6656 21.0651L42.1812 21.5331V35.6675C42.1812 36.4164 41.6656 37.1184 40.7752 37.5864L5.43669 54.4354C5.43669 54.4354 4.96801 54.5758 4.6868 54.5758C4.07752 54.5758 3.46823 54.295 2.99955 53.8738C2.71834 53.6398 2.24966 53.0781 2.24966 52.3293L2.24966 38.4757L41.6656 21.0183M42.0875 18.3973L1.83002e-07 37.0248L2.42874e-10 52.3293C-2.99375e-08 54.8566 2.29653 56.8224 4.6868 56.8224C5.24922 56.8224 5.81163 56.7288 6.37405 56.4479L41.7594 39.5522C43.6341 38.6161 44.4777 37.0248 44.4309 35.5271V20.5034L42.0875 18.3973Z" fill="white"/>
<path d="M44.4309 24.2942C44.384 25.6983 43.4935 27.1491 41.7594 28.0384L6.37405 44.8874C3.56197 46.1511 3.01803e-08 43.8577 6.70674e-08 40.7687L0 46.3851C-3.68871e-08 49.474 3.56197 51.7674 6.37405 50.5037L41.7594 33.6079C43.6341 32.6719 44.4777 31.0806 44.4309 29.5829V24.2474V24.2942Z" fill="white"/>
<path d="M41.9468 16.7589L6.04597 0.377971C3.23389 -0.885703 4.28114e-07 1.17362 3.91227e-07 4.2626L1.83002e-07 37.0248C1.46115e-07 40.1138 3.56197 42.4068 6.37405 41.1432L41.7594 24.2474C42.6499 23.7793 43.306 23.2177 43.7747 22.5157C45.087 20.5032 44.4309 17.8822 41.9468 16.7589Z" fill="white"/>
</svg>
